<svg preserveAspectRatio="none" width="100%" height="100%" overflow="visible" style="display: block;" viewBox="0 0 104.999 28" fill="none" xmlns="http://www.w3.org/2000/svg">
<path id="Instagram Logo" d="M34.0642 0.612814C34.1269 0.0533372 34.4474 -0.0806537 35.153 0.0561729C35.6639 0.155172 36.0952 0.246509 36.5769 0.438009C36.7749 0.516384 37.1198 0.64623 37.0974 0.896993C37.0707 1.19579 36.9576 4.00439 36.9558 4.04934C36.9815 4.05113 38.2473 4.13924 38.7048 4.14895C39.2547 4.15995 40.6398 4.22894 40.8366 4.30813C41.2694 4.48323 40.8653 5.89796 40.446 5.91848C39.61 5.95867 39.0414 5.94521 38.4138 5.95168C38.1717 5.95432 36.9278 5.97387 36.9108 5.97414C36.8772 6.38915 36.6794 10.6841 36.6794 13.7007C36.6794 15.9655 37.2342 17.0278 37.8171 17.0279C38.8131 17.0276 40.0305 15.2017 40.3063 13.6167C40.3016 13.0589 40.3384 12.4611 40.4216 11.8238C40.7096 9.61773 41.2694 8.62019 41.9606 7.72121C43.0208 6.34263 44.4088 6.00641 45.7458 6.37942C46.2422 6.51764 46.9889 6.99414 47.4528 7.67922V7.18508C47.4533 6.97066 47.6936 6.68342 48.0349 6.65969C48.2937 6.64165 48.6309 6.67253 49.0212 6.75734C49.3943 6.83873 50.1966 7.05894 50.2038 7.49465C50.2058 7.63666 50.1709 8.26381 50.153 9.07961C50.1223 10.4962 50.0593 11.3487 50.0593 13.3071C50.0593 16.6648 50.5624 17.3998 51.446 17.3999C52.1372 17.3998 52.749 16.3662 52.9616 15.3784C52.7647 14.3919 52.738 13.221 52.8825 11.8433C53.0377 10.3648 53.5854 8.8211 54.4216 7.72121C55.474 6.33723 56.8696 6.0063 58.2067 6.37942C58.7031 6.51774 59.4489 6.99438 59.9128 7.67922C59.9128 7.66055 59.9126 7.29218 59.9108 7.23098C59.9024 6.89866 60.2426 6.6176 60.8063 6.65871C61.2532 6.69128 61.6842 6.78462 62.0485 6.91945C62.4604 7.07187 62.6586 7.19287 62.6638 7.51125C62.6657 7.65343 62.6308 8.26382 62.613 9.07961C62.5946 9.91291 62.5533 12.2247 62.5632 15.1616C62.5639 15.3678 62.5655 15.5756 62.5671 15.7827C63.0014 15.2261 63.3382 14.7021 63.778 13.9956C64.5996 12.6762 65.3958 10.8507 65.7204 9.45363C65.7107 9.44833 64.7318 8.9098 64.8913 7.77492C64.9925 7.05669 65.2589 6.65669 65.6501 6.31789C66.306 5.75055 68.3598 5.60685 68.1394 7.38332C68.0984 7.71327 68.0482 7.90469 68.0456 7.91457C68.895 7.79629 69.8241 7.64175 70.4733 7.49856C71.3842 7.29802 72.0184 7.46147 72.3161 7.78078C72.6405 8.12927 72.7701 8.49365 72.611 9.18801C72.2376 10.8172 71.8956 11.9439 71.8444 13.5484C71.767 15.9882 72.4338 17.3995 73.3532 17.3999C73.9865 17.3998 74.5651 16.8808 74.8767 15.6148C74.6189 14.4927 74.5714 13.1654 74.7165 11.857C74.915 10.0672 75.4201 8.82112 76.2565 7.72121C77.309 6.33723 78.7046 6.00614 80.0417 6.37942C80.538 6.51781 81.284 6.99442 81.7478 7.67922C81.7476 7.66249 81.7458 7.36404 81.7458 7.20461C81.746 6.89928 82.001 6.677 82.361 6.65774C82.6154 6.64415 82.9413 6.67568 83.3161 6.75734C83.6893 6.83858 84.4917 7.05883 84.4987 7.49465C84.5007 7.63684 84.4658 8.26374 84.4479 9.07961C84.4172 10.4963 84.3552 11.3487 84.3552 13.3071C84.3552 16.6646 84.7716 17.3997 85.655 17.3999C86.5375 17.3997 87.35 15.6426 87.6003 14.3482C87.5998 14.2064 87.5993 14.0721 87.5993 13.9497C87.5993 11.1368 87.6704 7.116 87.6706 7.06008C87.6707 6.71389 87.7818 6.47609 88.2341 6.47609C88.601 6.47624 89.4647 6.67602 89.903 6.79543C90.0006 6.82228 90.3229 6.97039 90.321 7.41262C90.3163 8.57889 90.3113 11.6406 90.3112 11.6802C90.3184 11.6602 90.5959 10.889 90.9919 9.75734C91.4854 8.34685 91.9607 7.15668 92.3708 6.71438C92.8445 6.17409 94.1595 6.6283 94.5925 6.88527C95.2594 7.28122 95.3882 7.76542 95.3923 8.33352C95.4135 11.2451 95.5835 12.632 95.6599 13.395C95.6711 13.5101 95.7354 13.5007 95.7419 13.4517C95.8618 12.499 96.3709 10.1531 97.6726 7.19973C98.1334 6.15488 99.0595 6.47465 99.696 6.69192C101.175 7.19698 101.328 7.71067 101.299 8.22902C101.155 10.7523 101.137 13.2894 101.249 14.6675C101.392 16.4198 101.947 17.2953 102.565 17.2954C103.118 17.2953 103.548 16.896 103.956 15.1284C104.073 14.6203 104.216 14.3169 104.528 14.3169C104.929 14.3172 105.063 14.7948 104.972 15.4116C104.597 17.976 103.482 18.9506 102.119 18.9507C101.48 18.9506 99.6477 18.6582 99.0144 16.0454C98.5472 14.1165 98.6623 10.5894 98.7136 9.51125C98.7143 9.48043 98.6727 9.33429 98.5837 9.52297C98.3403 10.0404 97.6652 11.4547 97.2604 13.02C96.6411 15.4158 96.5874 17.0842 96.6179 17.356C96.6806 17.9098 95.9796 17.9975 95.6442 17.9976C95.1172 17.9976 94.47 17.9559 93.946 17.0855C93.7624 16.7809 93.5232 15.8192 93.3444 14.1929C93.1009 11.9809 93.0714 10.3337 93.0583 9.77297C93.0518 9.4964 92.876 9.5399 92.7204 9.80129C92.4422 10.2687 91.8557 11.2134 91.2272 13.646C90.8528 15.096 90.8914 17.0472 90.8278 18.2085C90.8036 18.6501 90.6268 18.8213 90.4001 18.8648C90.0723 18.9271 89.1858 19.0707 88.3171 18.7681C88.1209 18.6997 87.8511 18.5578 87.8044 18.4448C87.7285 18.26 87.6797 17.6742 87.6491 16.9585C86.9179 18.5846 86.0167 18.9506 85.0671 18.9507C84.1553 18.9507 82.5629 18.3563 82.2351 16.4321C82.2304 16.4413 82.0355 16.8212 81.695 17.2593C80.1673 19.2253 77.1572 19.7275 75.6003 17.4087C75.5245 17.2958 75.4558 17.1727 75.3894 17.0464C74.838 18.1802 73.8086 18.9437 72.7331 18.9439C71.8143 18.9439 70.2645 18.3589 69.5769 16.5396C68.5729 13.882 69.6726 9.89258 69.739 9.64504C69.7933 9.4419 69.7078 9.38479 69.4128 9.40285C68.4971 9.45919 67.6384 9.45276 67.6247 9.45266C67.1149 10.9642 66.1192 12.9067 65.1901 14.353C64.3376 15.68 63.4113 16.8144 62.5895 17.7114C62.6076 18.8799 62.6303 19.9703 62.6442 20.8277C62.6792 22.9686 62.2023 25.1366 61.4733 26.1441C60.645 27.2884 59.2946 28.1062 57.7214 27.9888C56.2373 27.878 54.2788 27.0335 54.445 24.7622C54.576 22.9807 56.3549 21.45 58.696 19.4331C59.2246 18.9776 60.0836 18.2367 60.0925 18.229L60.0485 17.0073C59.9943 17.0825 59.9315 17.1671 59.8601 17.2593C58.3429 19.2281 55.3232 19.7271 53.7663 17.4087C53.6632 17.2551 53.5677 17.093 53.4812 16.9234C52.7421 18.4869 51.6878 18.9408 50.6667 18.9409C49.7547 18.9409 48.1614 18.2914 47.9401 16.4321C47.9386 16.4367 47.864 16.6575 47.4001 17.2593C45.883 19.2283 42.8623 19.7275 41.3054 17.4087C40.9804 16.9247 40.7293 16.352 40.5593 15.6939C39.967 17.3085 38.6122 18.9496 37.2614 18.9497C35.241 18.9497 34.0777 17.2754 33.8044 14.3159C32.278 17.7423 30.0854 19.0708 27.3483 18.9849C26.6458 18.9628 25.5435 18.7687 25.031 18.5542C24.4359 18.3051 23.8618 18.0197 24.0192 17.481C24.1813 16.9273 24.4655 16.4791 24.9616 16.1275C25.1527 15.9924 25.4718 16.0317 25.6804 16.1607C26.0686 16.4009 26.2336 16.5656 26.6198 16.7788C27.9454 17.5098 28.6906 16.7577 28.8884 16.0279C29.1467 15.0734 28.7566 14.067 27.57 13.0083C27.0593 12.5526 26.5479 12.1254 26.0925 11.729C25.439 12.7644 24.5292 14.2014 23.5925 15.6665C22.0897 18.0177 20.6876 18.9467 19.6931 18.9468C18.3932 18.9468 17.4831 18.0757 17.6726 13.3755C17.7433 11.6194 17.8487 9.55143 17.8786 8.72414C17.885 8.53792 17.7458 8.54486 17.6237 8.65871C16.9242 9.31259 15.4366 11.1539 14.2956 14.9273C13.5629 17.3504 13.5592 18.0013 13.4724 18.6021C13.3999 19.1034 12.0038 18.9356 11.7487 18.8863C11.475 18.8331 11.3094 18.7035 11.1657 18.5347C11.0221 18.3655 10.9054 18.0812 10.8337 17.732C10.7619 17.3828 10.7429 16.5855 10.7429 15.9019L10.8044 6.89992C10.8045 6.60778 10.972 6.46047 11.3073 6.46047C12.0114 6.46055 12.8037 6.77007 13.1003 6.92141C13.2748 7.01047 13.351 7.14129 13.3513 7.2759L13.3142 13.0298C13.3254 13.0016 13.7525 11.9228 13.9714 11.3277C15.7309 6.54377 17.5935 6.46047 18.239 6.46047C18.6702 6.4608 19.4146 6.8573 19.7634 7.0591C20.3375 7.39131 20.6798 7.75915 20.654 8.40285C20.5755 10.3496 20.4773 12.2302 20.4772 13.481C20.4772 14.9318 20.4701 16.4816 21.0114 16.482C21.6888 16.4817 22.5856 14.9556 23.7722 13.0259C24.1996 12.3309 24.7046 11.4346 25.072 10.7691C25.0223 10.7153 24.9737 10.6612 24.9294 10.6089C24.3221 9.89277 24.1565 9.20312 24.4665 8.27395C24.867 7.07442 26.21 5.95043 27.8376 6.30227C28.822 6.51529 28.8051 7.48052 28.404 8.32375C27.8445 9.49982 27.2133 10.0917 27.1979 10.106C28.3004 10.8728 29.2864 11.5722 29.7858 11.9419C31.141 12.9451 31.8932 14.1314 31.5251 15.7095C31.5507 15.6901 33.244 14.4022 33.7272 12.0347C33.7264 11.9009 33.7263 11.7627 33.7263 11.6196C33.7263 10.2743 33.7651 5.92587 33.7653 5.90481C32.8806 5.87989 31.5458 5.85557 30.78 5.82766C30.1147 5.80329 30.6345 3.85695 31.1159 3.85695C31.6347 3.85701 33.4037 3.95266 33.9216 3.95266C33.9223 3.91707 33.9706 1.45661 34.0642 0.612814ZM60.2145 20.0484C58.1833 21.9322 56.796 23.4752 56.5026 24.9849C56.1715 26.6909 57.772 27.3243 58.9626 26.48C59.8019 25.8843 60.1933 23.8335 60.2106 21.4956C60.2182 20.4786 60.2145 20.0484 60.2145 20.0484ZM5.404 0.0971886C6.30305 -0.256524 8.20698 0.421394 8.22041 1.06692C8.27501 3.69879 8.25121 8.0762 8.24873 9.5718C8.2459 11.202 8.24859 14.0606 8.18232 15.8618C8.12736 17.3559 7.82183 18.7318 6.94892 19.8775C6.2208 20.8327 4.96338 21.4254 4.66865 21.1763C4.40515 20.9535 4.7531 20.3759 4.96943 19.52C5.1831 18.6754 5.30145 17.8204 5.30146 15.1138C5.30146 13.1133 5.36396 3.52725 5.36396 2.45949C5.36397 1.86268 5.37807 1.54012 5.08369 1.77199C3.49875 3.02039 2.23959 5.86549 2.52803 8.41164C2.75125 10.383 3.8354 10.5924 3.45576 11.2114C3.13265 11.7372 -0.798583 10.1305 0.14619 6.33156C0.892385 3.33213 3.25485 0.94349 5.404 0.0971886ZM58.153 8.24953C56.8352 8.24953 56.1013 9.70018 55.7985 11.2632C55.5653 12.4679 55.4521 14.3805 55.9235 15.8579C56.6132 18.0198 58.2779 17.5503 59.0739 16.0484C59.4595 15.3208 59.8126 14.033 59.8854 12.7515C60.066 9.57179 59.4342 8.24971 58.153 8.24953ZM79.988 8.24953C78.6945 8.13557 77.9133 9.39981 77.6335 11.0728C77.3587 12.715 77.3763 14.6811 77.7585 15.8579C78.46 18.0164 80.1117 17.5501 80.9079 16.0484C81.3191 15.2725 81.6511 14.1721 81.7204 12.7652C81.8608 9.90818 81.2635 8.36246 79.988 8.24953ZM45.6931 8.24953C44.4517 8.13542 43.6563 9.34016 43.3386 11.0386C43.1246 12.1834 42.9492 14.3036 43.4636 15.8579C44.1773 18.0128 45.7951 17.5398 46.613 16.0484C47.065 15.2242 47.3474 14.0891 47.4255 12.732C47.5882 9.9083 46.968 8.36705 45.6931 8.24953Z" fill="var(--fill-0, #262626)"/>
</svg>
